<svg width="49" height="49" viewBox="0 0 49 49" fill="none" xmlns="http://www.w3.org/2000/svg">
<path d="M8.15076 16.2173C8.15076 10.5097 8.15076 7.65392 9.92479 5.88191C11.6968 4.10788 14.5526 4.10788 20.2602 4.10788H28.3331C34.0407 4.10788 36.8965 4.10788 38.6685 5.88191C40.4425 7.65392 40.4425 10.5097 40.4425 16.2173V32.3632C40.4425 38.0708 40.4425 40.9266 38.6685 42.6986C36.8965 44.4726 34.0407 44.4726 28.3331 44.4726H20.2602C14.5526 44.4726 11.6968 44.4726 9.92479 42.6986C8.15076 40.9266 8.15076 38.0708 8.15076 32.3632V16.2173Z" stroke="white" stroke-width="1.5"/>
<path d="M40.2367 32.3632H16.0178C14.1409 32.3632 13.2024 32.3632 12.4314 32.569C11.4048 32.8443 10.4687 33.3851 9.71727 34.1368C8.96584 34.8886 8.42557 35.825 8.15076 36.8517" stroke="white" stroke-width="1.5"/>
<path d="M16.2238 14.1991H32.3696M16.2238 21.2629H26.3149" stroke="white" stroke-width="1.5" stroke-linecap="round"/>
</svg>
