<svg width="49" height="49" viewBox="0 0 49 49" fill="none" xmlns="http://www.w3.org/2000/svg">
<path d="M10.0912 24.2188H6.05469L24.2188 6.05471L42.3829 24.2188H38.3465M10.0912 24.2188V38.3465C10.0912 39.417 10.5164 40.4437 11.2734 41.2007C12.0304 41.9577 13.0571 42.383 14.1276 42.383H34.31C35.3805 42.383 36.4072 41.9577 37.1642 41.2007C37.9212 40.4437 38.3465 39.417 38.3465 38.3465V24.2188" stroke="white" stroke-width="2" stroke-linecap="round" stroke-linejoin="round"/>
<path d="M18.1641 42.383V30.2735C18.1641 29.203 18.5893 28.1763 19.3463 27.4193C20.1033 26.6623 21.13 26.2371 22.2005 26.2371H26.237C27.3075 26.2371 28.3342 26.6623 29.0912 27.4193C29.8482 28.1763 30.2735 29.203 30.2735 30.2735V42.383" stroke="white" stroke-width="2" stroke-linecap="round" stroke-linejoin="round"/>
</svg>
