<svg width="60" height="60" viewBox="0 0 60 60" fill="none" xmlns="http://www.w3.org/2000/svg">
<path d="M30 11.25C30 10.9185 29.8683 10.6005 29.6339 10.3661C29.3995 10.1317 29.0815 10 28.75 10C28.4185 10 28.1005 10.1317 27.8661 10.3661C27.6317 10.6005 27.5 10.9185 27.5 11.25V15.075C21.875 15.7 17.5 20.45 17.5 26.25V41.025L13.525 45H43.975L40 41.025V26.25C40 20.45 35.625 15.7 30 15.075V11.25ZM28.75 7.5C29.7446 7.5 30.6984 7.89509 31.4016 8.59835C32.1049 9.30161 32.5 10.2554 32.5 11.25V13.025C38.275 14.65 42.5 20 42.5 26.25V40L50 47.5H7.5L15 40V26.25C15 20 19.225 14.65 25 13.025V11.25C25 10.2554 25.3951 9.30161 26.0983 8.59835C26.8016 7.89509 27.7554 7.5 28.75 7.5ZM28.75 55C27.3092 55.0003 25.9125 54.5028 24.7964 53.5916C23.6802 52.6805 22.9132 51.4117 22.625 50H25.225C25.4821 50.7296 25.9593 51.3614 26.5906 51.8083C27.222 52.2552 27.9765 52.4952 28.75 52.4952C29.5235 52.4952 30.278 52.2552 30.9094 51.8083C31.5407 51.3614 32.0179 50.7296 32.275 50H34.875C34.5868 51.4117 33.8198 52.6805 32.7036 53.5916C31.5875 54.5028 30.1908 55.0003 28.75 55Z" fill="black"/>
</svg>
