<svg width="50" height="50" viewBox="0 0 50 50" fill="none" xmlns="http://www.w3.org/2000/svg">
<path d="M18.3333 42.0812C17.8053 42.6101 17.1782 43.0296 16.4879 43.3159C15.7977 43.6023 15.0577 43.7498 14.3104 43.75H6.25V35.7417C6.25 34.2333 6.85 32.7854 7.91667 31.7187M18.3333 42.0812L7.91667 31.7187M18.3333 42.0812L39.1125 21.2937M7.91667 31.7187L28.7167 10.8958L31.6875 7.92083C32.2162 7.39137 32.844 6.97129 33.5351 6.68462C34.2262 6.39794 34.967 6.25029 35.7152 6.25009C36.4634 6.2499 37.2043 6.39717 37.8955 6.68349C38.5868 6.96981 39.2148 7.38956 39.7437 7.91875L42.0896 10.2667C43.1573 11.3344 43.7572 12.7827 43.7572 14.2927C43.7572 15.8028 43.1573 17.251 42.0896 18.3187L39.1125 21.2937M39.1125 21.2937L28.7146 10.8958" stroke="black" stroke-width="1.5" stroke-linecap="round" stroke-linejoin="round"/>
</svg>
