<svg width="44" height="44" viewBox="0 0 44 44" fill="none" xmlns="http://www.w3.org/2000/svg">
<path d="M17.0628 40.4121L16.3452 34.6713C15.9565 34.5218 15.5905 34.3424 15.2473 34.1331C14.904 33.9238 14.5673 33.6996 14.2373 33.4604L8.90014 35.7028L3.96667 27.1814L8.58619 23.6831C8.55629 23.4738 8.54134 23.2723 8.54134 23.0786V21.8676C8.54134 21.6727 8.55629 21.4705 8.58619 21.2612L3.96667 17.763L8.90014 9.24153L14.2373 11.484C14.5662 11.2448 14.91 11.0206 15.2688 10.8113C15.6276 10.602 15.9864 10.4226 16.3452 10.2731L17.0628 4.53232H26.9297L27.6473 10.2731C28.036 10.4226 28.4026 10.602 28.747 10.8113C29.0915 11.0206 29.4275 11.2448 29.7552 11.484L35.0924 9.24153L40.0258 17.763L35.4063 21.2612C35.4362 21.4705 35.4512 21.6727 35.4512 21.8676V23.0768C35.4512 23.2717 35.4213 23.4738 35.3615 23.6831L39.981 27.1814L35.0475 35.7028L29.7552 33.4604C29.4263 33.6996 29.0825 33.9238 28.7237 34.1331C28.3649 34.3424 28.0061 34.5218 27.6473 34.6713L26.9297 40.4121H17.0628ZM20.2023 36.8241H23.7454L24.3733 32.07C25.3002 31.8308 26.1601 31.4798 26.953 31.017C27.746 30.5541 28.4708 29.9932 29.1273 29.3342L33.5675 31.173L35.3166 28.1233L31.4595 25.208C31.609 24.7894 31.7137 24.3487 31.7735 23.8859C31.8333 23.423 31.8632 22.9518 31.8632 22.4722C31.8632 21.9926 31.8333 21.522 31.7735 21.0603C31.7137 20.5987 31.609 20.1573 31.4595 19.7364L35.3166 16.8211L33.5675 13.7714L29.1273 15.655C28.4696 14.9673 27.7448 14.3921 26.953 13.9292C26.1613 13.4664 25.3014 13.1148 24.3733 12.8744L23.7902 8.12029H20.2471L19.6192 12.8744C18.6923 13.1136 17.833 13.4652 17.0413 13.9292C16.2495 14.3933 15.5241 14.9536 14.8651 15.6102L10.425 13.7714L8.67589 16.8211L12.533 19.6915C12.3835 20.14 12.2788 20.5885 12.219 21.037C12.1592 21.4855 12.1293 21.9639 12.1293 22.4722C12.1293 22.9506 12.1592 23.414 12.219 23.8625C12.2788 24.311 12.3835 24.7595 12.533 25.208L8.67589 28.1233L10.425 31.173L14.8651 29.2893C15.5229 29.977 16.2483 30.5529 17.0413 31.017C17.8342 31.481 18.6935 31.832 19.6192 32.07L20.2023 36.8241ZM22.0859 28.7511C23.8201 28.7511 25.3002 28.1382 26.5261 26.9123C27.752 25.6864 28.3649 24.2064 28.3649 22.4722C28.3649 20.738 27.752 19.258 26.5261 18.0321C25.3002 16.8062 23.8201 16.1932 22.0859 16.1932C20.3219 16.1932 18.834 16.8062 17.6225 18.0321C16.411 19.258 15.8058 20.738 15.807 22.4722C15.8082 24.2064 16.414 25.6864 17.6243 26.9123C18.8346 28.1382 20.3219 28.7511 22.0859 28.7511Z" fill="white" fill-opacity="0.6"/>
</svg>
